UPM256-Bold.ufo
<glyph name="exclam" format="1">
  <advance width="56"/>
  <unicode hex="0021"/>
  <outline>
    <contour>
      <point x="40" y="180" type="line"/>
      <point x="16" y="180" type="line"/>
      <point x="16" y="60" type="line"/>
      <point x="40" y="60" type="line"/>
    </contour>
    <contour>
      <point x="40" y="36" type="line"/>
      <point x="16" y="36" type="line"/>
      <point x="16" y="0" type="line"/>
      <point x="40" y="0" type="line"/>
    </contour>
  </outline>
</glyph>
<glyph name="percent" format="1">
  <advance width="256"/>
  <unicode hex="0025"/>
  <outline>
    <contour>
      <point x="38" y="38" type="line"/>
      <point x="56" y="56" type="line"/>
      <point x="98" y="0" type="line"/>
      <point x="126" y="0" type="line"/>
      <point x="72" y="72" type="line"/>
      <point x="124" y="124" type="line"/>
      <point x="94" y="124" type="line"/>
      <point x="38" y="68" type="line"/>
      <point x="38" y="184" type="line"/>
      <point x="16" y="184" type="line"/>
      <point x="16" y="0" type="line"/>
      <point x="38" y="0" type="line"/>
    </contour>
  </outline>
</glyph>
<glyph name="ampersand" format="1">
  <advance width="116"/>
  <unicode hex="0026"/>
  <outline>
    <contour>
      <point x="40" y="114" type="line"/>
      <point x="31" y="123"/>
      <point x="26" y="133"/>
      <point x="26" y="141" type="curve" smooth="yes"/>
      <point x="26" y="152"/>
      <point x="40" y="162"/>
      <point x="53" y="164" type="curve" smooth="yes"/>
      <point x="66" y="164"/>
      <point x="73" y="150"/>
      <point x="73" y="143" type="curve" smooth="yes"/>
      <point x="72" y="132"/>
      <point x="58" y="125"/>
      <point x="52" y="119" type="curve"/>
      <point x="18" y="85" type="line"/>
      <point x="-2" y="65"/>
      <point x="-22" y="40"/>
      <point x="11" y="7" type="curve" smooth="yes"/>
      <point x="43" y="-25"/>
      <point x="69" y="-5"/>
      <point x="89" y="15" type="curve"/>
      <point x="142" y="68" type="line"/>
      <point x="125" y="85" type="line"/>
      <point x="72" y="32" type="line"/>
      <point x="63" y="23"/>
      <point x="47" y="2"/>
      <point x="26" y="23" type="curve" smooth="yes"/>
      <point x="5" y="44"/>
      <point x="26" y="60"/>
      <point x="35" y="68" type="curve"/>
      <point x="69" y="102" type="line"/>
      <point x="81" y="114"/>
      <point x="95" y="127"/>
      <point x="96" y="142" type="curve" smooth="yes"/>
      <point x="98" y="158"/>
      <point x="77" y="188"/>
      <point x="53" y="188" type="curve" smooth="yes"/>
      <point x="28" y="188"/>
      <point x="-1" y="164"/>
      <point x="-1" y="139" type="curve" smooth="yes"/>
      <point x="-1" y="127"/>
      <point x="6" y="114"/>
      <point x="23" y="97" type="curve"/>
      <point x="120" y="0" type="line"/>
      <point x="154" y="0" type="line"/>
    </contour>
  </outline>
</glyph>
<glyph name="asterisk" format="1">
  <advance width="116"/>
  <unicode hex="002A"/>
  <outline>
    <contour>
      <point x="78" y="90" type="line"/>
      <point x="94" y="102" type="line"/>
      <point x="75" y="128" type="line"/>
      <point x="104" y="137" type="line"/>
      <point x="98" y="156" type="line"/>
      <point x="68" y="147" type="line"/>
      <point x="68" y="180" type="line"/>
      <point x="48" y="180" type="line"/>
      <point x="48" y="147" type="line"/>
      <point x="18" y="156" type="line"/>
      <point x="12" y="137" type="line"/>
      <point x="41" y="128" type="line"/>
      <point x="22" y="102" type="line"/>
      <point x="38" y="90" type="line"/>
      <point x="58" y="118" type="line"/>
    </contour>
  </outline>
</glyph>
<glyph name="hyphen" format="1">
  <advance width="100"/>
  <unicode hex="002D"/>
  <outline>
    <contour>
      <point x="84" y="62" type="line"/>
      <point x="84" y="84" type="line"/>
      <point x="16" y="84" type="line"/>
      <point x="16" y="62" type="line"/>
    </contour>
  </outline>
</glyph>
<glyph name="period" format="1">
  <advance width="56"/>
  <unicode hex="002E"/>
  <outline>
    <contour>
      <point x="40" y="24" type="line"/>
      <point x="16" y="24" type="line"/>
      <point x="16" y="0" type="line"/>
      <point x="40" y="0" type="line"/>
    </contour>
  </outline>
</glyph>
<glyph name="one" format="1">
  <advance width="84.0"/>
  <unicode hex="0031"/>
  <outline>
    <contour>
      <point x="76" y="180" type="line"/>
      <point x="52" y="180" type="line"/>
      <point x="48" y="156"/>
      <point x="32" y="148"/>
      <point x="8" y="144" type="curve"/>
      <point x="8" y="128" type="line"/>
      <point x="52" y="128" type="line"/>
      <point x="52" y="0" type="line"/>
      <point x="76" y="0" type="line"/>
    </contour>
  </outline>
</glyph>
<glyph name="two" format="1">
  <advance width="142"/>
  <unicode hex="0032"/>
  <outline>
    <contour>
      <point x="36" y="128" type="line"/>
      <point x="36" y="148"/>
      <point x="52" y="164"/>
      <point x="72" y="164" type="curve" smooth="yes"/>
      <point x="92" y="164"/>
      <point x="108" y="148"/>
      <point x="108" y="128" type="curve" smooth="yes"/>
      <point x="108" y="108"/>
      <point x="92" y="96"/>
      <point x="82" y="90" type="curve" smooth="yes"/>
      <point x="50" y="70" type="line" smooth="yes"/>
      <point x="20" y="52"/>
      <point x="8" y="28"/>
      <point x="8" y="0" type="curve"/>
      <point x="136" y="0" type="line"/>
      <point x="136" y="22" type="line"/>
      <point x="36" y="22" type="line"/>
      <point x="40" y="38"/>
      <point x="56" y="48"/>
      <point x="66" y="54" type="curve" smooth="yes"/>
      <point x="98" y="74" type="line" smooth="yes"/>
      <point x="116" y="84"/>
      <point x="132" y="100"/>
      <point x="132" y="128" type="curve" smooth="yes"/>
      <point x="132" y="156"/>
      <point x="112" y="184"/>
      <point x="72" y="184" type="curve" smooth="yes"/>
      <point x="32" y="184"/>
      <point x="12" y="156"/>
      <point x="12" y="128" type="curve"/>
    </contour>
  </outline>
</glyph>
<glyph name="four" format="1">
  <advance width="142"/>
  <unicode hex="0034"/>
  <outline>
    <contour>
      <point x="-12" y="40" type="line"/>
      <point x="78" y="40" type="line"/>
      <point x="78" y="0" type="line"/>
      <point x="104" y="0" type="line"/>
      <point x="104" y="40" type="line"/>
      <point x="136" y="40" type="line"/>
      <point x="136" y="66" type="line"/>
      <point x="104" y="66" type="line"/>
      <point x="104" y="180" type="line"/>
      <point x="66" y="180" type="line"/>
      <point x="-12" y="72" type="line"/>
    </contour>
    <contour>
      <point x="78" y="66" type="line"/>
      <point x="14" y="66" type="line"/>
      <point x="78" y="154" type="line"/>
    </contour>
  </outline>
</glyph>
<glyph name="six" format="1">
  <advance width="142"/>
  <unicode hex="0036"/>
  <outline>
    <contour>
      <point x="79" y="178" type="line"/>
      <point x="52" y="158"/>
      <point x="6" y="148"/>
      <point x="6" y="82" type="curve" smooth="yes"/>
      <point x="6" y="22"/>
      <point x="40" y="-4"/>
      <point x="76" y="-4" type="curve" smooth="yes"/>
      <point x="112" y="-4"/>
      <point x="142" y="20"/>
      <point x="142" y="58" type="curve" smooth="yes"/>
      <point x="142" y="98"/>
      <point x="116" y="122"/>
      <point x="80" y="122" type="curve" smooth="yes"/>
      <point x="56" y="122"/>
      <point x="34" y="101"/>
      <point x="28" y="89" type="curve"/>
      <point x="38" y="125"/>
      <point x="88" y="155"/>
      <point x="119" y="178" type="curve"/>
    </contour>
    <contour>
      <point x="38" y="58" type="curve" smooth="yes"/>
      <point x="38" y="84"/>
      <point x="54" y="98"/>
      <point x="76" y="98" type="curve" smooth="yes"/>
      <point x="96" y="98"/>
      <point x="116" y="84"/>
      <point x="116" y="58" type="curve" smooth="yes"/>
      <point x="116" y="34"/>
      <point x="98" y="20"/>
      <point x="76" y="20" type="curve" smooth="yes"/>
      <point x="56" y="20"/>
      <point x="38" y="36"/>
    </contour>
  </outline>
</glyph>
<glyph name="A" format="1">
  <advance width="176"/>
  <unicode hex="0041"/>
  <outline>
    <contour>
      <point x="88" y="154" type="line"/>
      <point x="120" y="73" type="line"/>
      <point x="56" y="73" type="line"/>
    </contour>
    <contour>
      <point x="148" y="0" type="line"/>
      <point x="174" y="0" type="line"/>
      <point x="102" y="180" type="line"/>
      <point x="74" y="180" type="line"/>
      <point x="2" y="0" type="line"/>
      <point x="28" y="0" type="line"/>
      <point x="48" y="51" type="line"/>
      <point x="128" y="51" type="line"/>
    </contour>
  </outline>
</glyph>
<glyph name="B" format="1">
  <advance width="148"/>
  <unicode hex="0042"/>
  <outline>
    <contour>
      <point x="86" y="0" type="line" smooth="yes"/>
      <point x="116" y="0"/>
      <point x="138" y="20"/>
      <point x="138" y="50" type="curve" smooth="yes"/>
      <point x="138" y="72"/>
      <point x="123" y="88"/>
      <point x="107" y="93" type="curve"/>
      <point x="120" y="99"/>
      <point x="132" y="110"/>
      <point x="132" y="132" type="curve" smooth="yes"/>
      <point x="132" y="162"/>
      <point x="112" y="180"/>
      <point x="82" y="180" type="curve" smooth="yes"/>
      <point x="20" y="180" type="line"/>
      <point x="20" y="0" type="line"/>
    </contour>
    <contour>
      <point x="80" y="158" type="line" smooth="yes"/>
      <point x="96" y="158"/>
      <point x="108" y="146"/>
      <point x="108" y="130" type="curve" smooth="yes"/>
      <point x="108" y="114"/>
      <point x="96" y="102"/>
      <point x="80" y="102" type="curve" smooth="yes"/>
      <point x="44" y="102" type="line"/>
      <point x="44" y="158" type="line"/>
    </contour>
    <contour>
      <point x="82" y="22" type="curve" smooth="yes"/>
      <point x="44" y="22" type="line"/>
      <point x="44" y="82" type="line"/>
      <point x="82" y="82" type="line" smooth="yes"/>
      <point x="100" y="82"/>
      <point x="114" y="70"/>
      <point x="114" y="52" type="curve" smooth="yes"/>
      <point x="114" y="34"/>
      <point x="100" y="22"/>
    </contour>
  </outline>
</glyph>
<glyph name="F" format="1">
  <advance width="144"/>
  <unicode hex="0046"/>
  <outline>
    <contour>
      <point x="44" y="0" type="line"/>
      <point x="44" y="76" type="line"/>
      <point x="116" y="76" type="line"/>
      <point x="116" y="96" type="line"/>
      <point x="44" y="96" type="line"/>
      <point x="44" y="160" type="line"/>
      <point x="132" y="160" type="line"/>
      <point x="132" y="180" type="line"/>
      <point x="20" y="180" type="line"/>
      <point x="20" y="0" type="line"/>
    </contour>
  </outline>
</glyph>
<glyph name="G" format="1">
  <advance width="196"/>
  <unicode hex="0047"/>
  <outline>
    <contour>
      <point x="160" y="64" type="line"/>
      <point x="160" y="40"/>
      <point x="128" y="18"/>
      <point x="102" y="18" type="curve" smooth="yes"/>
      <point x="64" y="18"/>
      <point x="36" y="50"/>
      <point x="36" y="90" type="curve" smooth="yes"/>
      <point x="36" y="132"/>
      <point x="64" y="162"/>
      <point x="102" y="162" type="curve" smooth="yes"/>
      <point x="128" y="162"/>
      <point x="148" y="150"/>
      <point x="160" y="128" type="curve"/>
      <point x="180" y="138" type="line"/>
      <point x="166" y="166"/>
      <point x="138" y="184"/>
      <point x="102" y="184" type="curve" smooth="yes"/>
      <point x="50" y="184"/>
      <point x="12" y="142"/>
      <point x="12" y="90" type="curve" smooth="yes"/>
      <point x="12" y="38"/>
      <point x="50" y="-4"/>
      <point x="102" y="-4" type="curve" smooth="yes"/>
      <point x="138" y="-4"/>
      <point x="172" y="26"/>
      <point x="172" y="54" type="curve"/>
    </contour>
    <contour>
      <point x="102" y="68" type="line"/>
      <point x="160" y="68" type="line"/>
      <point x="160" y="0" type="line"/>
      <point x="184" y="0" type="line"/>
      <point x="184" y="88" type="line"/>
      <point x="102" y="88" type="line"/>
    </contour>
  </outline>
</glyph>
<glyph name="L" format="1">
  <advance width="140"/>
  <unicode hex="004C"/>
  <outline>
    <contour>
      <point x="132" y="22" type="line"/>
      <point x="48" y="22" type="line"/>
      <point x="48" y="180" type="line"/>
      <point x="24" y="180" type="line"/>
      <point x="24" y="0" type="line"/>
      <point x="132" y="0" type="line"/>
    </contour>
  </outline>
</glyph>
<glyph name="P" format="1">
  <advance width="152"/>
  <unicode hex="0050"/>
  <outline>
    <contour>
      <point x="88" y="180" type="curve" smooth="yes"/>
      <point x="24" y="180" type="line"/>
      <point x="24" y="0" type="line"/>
      <point x="48" y="0" type="line"/>
      <point x="48" y="76" type="line"/>
      <point x="88" y="76" type="line" smooth="yes"/>
      <point x="118" y="76"/>
      <point x="140" y="98"/>
      <point x="140" y="128" type="curve" smooth="yes"/>
      <point x="140" y="158"/>
      <point x="118" y="180"/>
    </contour>
    <contour>
      <point x="82" y="158" type="line" smooth="yes"/>
      <point x="100" y="158"/>
      <point x="114" y="146"/>
      <point x="114" y="128" type="curve" smooth="yes"/>
      <point x="114" y="110"/>
      <point x="100" y="98"/>
      <point x="82" y="98" type="curve" smooth="yes"/>
      <point x="48" y="98" type="line"/>
      <point x="48" y="158" type="line"/>
    </contour>
  </outline>
</glyph>
<glyph name="S" format="1">
  <advance width="154"/>
  <unicode hex="0053"/>
  <outline>
    <contour>
      <point x="146" y="50" type="curve" smooth="yes"/>
      <point x="146" y="86"/>
      <point x="120" y="98"/>
      <point x="86" y="104" type="curve" smooth="yes"/>
      <point x="50" y="108"/>
      <point x="38" y="114"/>
      <point x="38" y="134" type="curve" smooth="yes"/>
      <point x="38" y="148"/>
      <point x="50" y="162"/>
      <point x="74" y="162" type="curve" smooth="yes"/>
      <point x="106" y="162"/>
      <point x="116" y="148"/>
      <point x="116" y="128" type="curve"/>
      <point x="140" y="128" type="line"/>
      <point x="140" y="166"/>
      <point x="114" y="184"/>
      <point x="76" y="184" type="curve" smooth="yes"/>
      <point x="30" y="184"/>
      <point x="14" y="156"/>
      <point x="14" y="134" type="curve" smooth="yes"/>
      <point x="14" y="104"/>
      <point x="36" y="88"/>
      <point x="70" y="84" type="curve" smooth="yes"/>
      <point x="106" y="78"/>
      <point x="120" y="74"/>
      <point x="120" y="50" type="curve" smooth="yes"/>
      <point x="120" y="30"/>
      <point x="104" y="20"/>
      <point x="80" y="20" type="curve" smooth="yes"/>
      <point x="50" y="20"/>
      <point x="34" y="34"/>
      <point x="34" y="58" type="curve"/>
      <point x="8" y="58" type="line"/>
      <point x="8" y="20"/>
      <point x="36" y="-4"/>
      <point x="78" y="-4" type="curve" smooth="yes"/>
      <point x="126" y="-4"/>
      <point x="146" y="24"/>
    </contour>
  </outline>
</glyph>
<glyph name="T" format="1">
  <advance width="152"/>
  <unicode hex="0054"/>
  <outline>
    <contour>
      <point x="88" y="0" type="line"/>
      <point x="88" y="158" type="line"/>
      <point x="148" y="158" type="line"/>
      <point x="148" y="180" type="line"/>
      <point x="4" y="180" type="line"/>
      <point x="4" y="158" type="line"/>
      <point x="64" y="158" type="line"/>
      <point x="64" y="0" type="line"/>
    </contour>
  </outline>
</glyph>
<glyph name="V" format="1">
  <advance width="170"/>
  <unicode hex="0056"/>
  <outline>
    <contour>
      <point x="83" y="32" type="line"/>
      <point x="30" y="180" type="line"/>
      <point x="4" y="180" type="line"/>
      <point x="71" y="0" type="line"/>
      <point x="95" y="0" type="line"/>
      <point x="166" y="180" type="line"/>
      <point x="140" y="180" type="line"/>
    </contour>
  </outline>
</glyph>
<glyph name="W" format="1">
  <advance width="260"/>
  <unicode hex="0057"/>
  <outline>
    <contour>
      <point x="142" y="180" type="line"/>
      <point x="118" y="180" type="line"/>
      <point x="71" y="38" type="line"/>
      <point x="32" y="180" type="line"/>
      <point x="6" y="180" type="line"/>
      <point x="59" y="0" type="line"/>
      <point x="83" y="0" type="line"/>
      <point x="130" y="146" type="line"/>
      <point x="177" y="0" type="line"/>
      <point x="201" y="0" type="line"/>
      <point x="254" y="180" type="line"/>
      <point x="228" y="180" type="line"/>
      <point x="189" y="38" type="line"/>
    </contour>
  </outline>
</glyph>
<glyph name="X" format="1">
  <advance width="181"/>
  <unicode hex="0058"/>
  <outline>
    <contour>
      <point x="126" y="0" type="line"/>
      <point x="156" y="0" type="line"/>
      <point x="95" y="90" type="line"/>
      <point x="156" y="180" type="line"/>
      <point x="126" y="180" type="line"/>
      <point x="80" y="110" type="line"/>
      <point x="34" y="180" type="line"/>
      <point x="4" y="180" type="line"/>
      <point x="65" y="90" type="line"/>
      <point x="4" y="0" type="line"/>
      <point x="34" y="0" type="line"/>
      <point x="80" y="70" type="line"/>
    </contour>
  </outline>
</glyph>
<glyph name="Z" format="1">
  <advance width="156.0"/>
  <unicode hex="005A"/>
  <outline>
    <contour>
      <point x="8" y="0" type="line"/>
      <point x="148" y="0" type="line"/>
      <point x="148" y="20" type="line"/>
      <point x="38" y="20" type="line"/>
      <point x="148" y="160" type="line"/>
      <point x="148" y="180" type="line"/>
      <point x="12" y="180" type="line"/>
      <point x="12" y="160" type="line"/>
      <point x="118" y="160" type="line"/>
      <point x="8" y="20" type="line"/>
    </contour>
  </outline>
</glyph>
<glyph name="b" format="1">
  <advance width="132"/>
  <unicode hex="0062"/>
  <outline>
    <contour>
      <point x="66" y="104" type="curve"/>
      <point x="84" y="104"/>
      <point x="102" y="92"/>
      <point x="102" y="60" type="curve" smooth="yes"/>
      <point x="102" y="28"/>
      <point x="84" y="16"/>
      <point x="66" y="16" type="curve"/>
      <point x="48" y="16"/>
      <point x="38" y="28"/>
      <point x="38" y="44" type="curve" smooth="yes"/>
      <point x="38" y="76" type="line" smooth="yes"/>
      <point x="38" y="92"/>
      <point x="48" y="104"/>
    </contour>
    <contour>
      <point x="38" y="106" type="curve"/>
      <point x="38" y="180" type="line"/>
      <point x="16" y="180" type="line"/>
      <point x="16" y="0" type="line"/>
      <point x="30" y="0" type="line"/>
      <point x="38" y="16" type="line"/>
      <point x="46" y="4"/>
      <point x="56" y="-4"/>
      <point x="72" y="-4" type="curve"/>
      <point x="92" y="-4"/>
      <point x="124" y="12"/>
      <point x="124" y="60" type="curve" smooth="yes"/>
      <point x="124" y="108"/>
      <point x="92" y="124"/>
      <point x="72" y="124" type="curve"/>
      <point x="56" y="124"/>
      <point x="44" y="116"/>
    </contour>
  </outline>
</glyph>
<glyph name="c" format="1">
  <advance width="132"/>
  <unicode hex="0063"/>
  <outline>
    <contour>
      <point x="122" y="86" type="line"/>
      <point x="114" y="106"/>
      <point x="92" y="120"/>
      <point x="68" y="120" type="curve" smooth="yes"/>
      <point x="34" y="120"/>
      <point x="8" y="92"/>
      <point x="8" y="58" type="curve" smooth="yes"/>
      <point x="8" y="24"/>
      <point x="34" y="-4"/>
      <point x="68" y="-4" type="curve" smooth="yes"/>
      <point x="94" y="-4"/>
      <point x="114" y="12"/>
      <point x="124" y="32" type="curve"/>
      <point x="106" y="42" type="line"/>
      <point x="100" y="26"/>
      <point x="84" y="16"/>
      <point x="68" y="16" type="curve" smooth="yes"/>
      <point x="46" y="16"/>
      <point x="28" y="34"/>
      <point x="28" y="58" type="curve" smooth="yes"/>
      <point x="28" y="82"/>
      <point x="46" y="100"/>
      <point x="68" y="100" type="curve" smooth="yes"/>
      <point x="84" y="100"/>
      <point x="98" y="90"/>
      <point x="104" y="76" type="curve"/>
    </contour>
  </outline>
</glyph>
<glyph name="e" format="1">
  <advance width="136"/>
  <unicode hex="0065"/>
  <outline>
    <contour>
      <point x="68" y="100" type="curve" smooth="yes"/>
      <point x="86" y="100"/>
      <point x="100" y="88"/>
      <point x="106" y="72" type="curve"/>
      <point x="30" y="72" type="line"/>
      <point x="36" y="88"/>
      <point x="50" y="100"/>
    </contour>
    <contour>
      <point x="124" y="36" type="curve"/>
      <point x="106" y="44" type="line"/>
      <point x="100" y="28"/>
      <point x="86" y="16"/>
      <point x="68" y="16" type="curve" smooth="yes"/>
      <point x="48" y="16"/>
      <point x="30" y="32"/>
      <point x="28" y="54" type="curve"/>
      <point x="128" y="54" type="line"/>
      <point x="128" y="58" type="line"/>
      <point x="128" y="92"/>
      <point x="102" y="120"/>
      <point x="68" y="120" type="curve" smooth="yes"/>
      <point x="34" y="120"/>
      <point x="8" y="92"/>
      <point x="8" y="58" type="curve" smooth="yes"/>
      <point x="8" y="24"/>
      <point x="34" y="-4"/>
      <point x="68" y="-4" type="curve" smooth="yes"/>
      <point x="94" y="-4"/>
      <point x="116" y="14"/>
    </contour>
  </outline>
</glyph>
<glyph name="j" format="1">
  <advance width="54"/>
  <unicode hex="006A"/>
  <outline>
    <contour>
      <point x="38.0" y="124.0" type="line"/>
      <point x="16.0" y="124.0" type="line"/>
      <point x="16" y="-12" type="line" smooth="yes"/>
      <point x="16" y="-28"/>
      <point x="4" y="-32"/>
      <point x="-8" y="-28" type="curve"/>
      <point x="-8" y="-48" type="line"/>
      <point x="16" y="-56"/>
      <point x="38" y="-48"/>
      <point x="38" y="-20" type="curve" smooth="yes"/>
    </contour>
    <contour>
      <point x="40" y="184" type="line"/>
      <point x="14" y="184" type="line"/>
      <point x="14" y="154" type="line"/>
      <point x="40" y="154" type="line"/>
    </contour>
  </outline>
</glyph>
<glyph name="k" format="1">
  <advance width="144"/>
  <unicode hex="006B"/>
  <outline>
    <contour>
      <point x="38" y="38" type="line"/>
      <point x="56" y="56" type="line"/>
      <point x="98" y="0" type="line"/>
      <point x="126" y="0" type="line"/>
      <point x="72" y="72" type="line"/>
      <point x="124" y="124" type="line"/>
      <point x="94" y="124" type="line"/>
      <point x="38" y="68" type="line"/>
      <point x="38" y="184" type="line"/>
      <point x="16" y="184" type="line"/>
      <point x="16" y="0" type="line"/>
      <point x="38" y="0" type="line"/>
    </contour>
  </outline>
</glyph>
<glyph name="m" format="1">
  <advance width="214"/>
  <unicode hex="006D"/>
  <outline>
    <contour>
      <point x="42" y="76" type="line" smooth="yes"/>
      <point x="42" y="92"/>
      <point x="53" y="104"/>
      <point x="70" y="104" type="curve"/>
      <point x="87" y="104"/>
      <point x="98" y="92"/>
      <point x="98" y="76" type="curve" smooth="yes"/>
      <point x="98" y="0" type="line"/>
      <point x="118" y="0" type="line"/>
      <point x="118" y="76" type="line" smooth="yes"/>
      <point x="118" y="92"/>
      <point x="129" y="104"/>
      <point x="146" y="104" type="curve"/>
      <point x="163" y="104"/>
      <point x="174" y="92"/>
      <point x="174" y="76" type="curve" smooth="yes"/>
      <point x="174" y="0" type="line"/>
      <point x="196" y="0" type="line"/>
      <point x="196" y="82" type="line" smooth="yes"/>
      <point x="196" y="114"/>
      <point x="172" y="126"/>
      <point x="152" y="126" type="curve"/>
      <point x="136" y="126"/>
      <point x="121" y="116"/>
      <point x="115" y="104" type="curve"/>
      <point x="108" y="119"/>
      <point x="91" y="126"/>
      <point x="76" y="126" type="curve"/>
      <point x="60" y="126"/>
      <point x="46" y="116"/>
      <point x="40" y="104" type="curve"/>
      <point x="40" y="124" type="line"/>
      <point x="20" y="124" type="line"/>
      <point x="20" y="0" type="line"/>
      <point x="42" y="0" type="line"/>
    </contour>
  </outline>
</glyph>
<glyph name="s" format="1">
  <advance width="112"/>
  <unicode hex="0073"/>
  <outline>
    <contour>
      <point x="104" y="34" type="curve" smooth="yes"/>
      <point x="104" y="54"/>
      <point x="92" y="64"/>
      <point x="70" y="68" type="curve" smooth="yes"/>
      <point x="44" y="74"/>
      <point x="34" y="76"/>
      <point x="34" y="86" type="curve" smooth="yes"/>
      <point x="34" y="96"/>
      <point x="44" y="100"/>
      <point x="56" y="100" type="curve" smooth="yes"/>
      <point x="74" y="100"/>
      <point x="80" y="92"/>
      <point x="80" y="84" type="curve"/>
      <point x="80" y="84" type="line"/>
      <point x="100" y="84" type="line"/>
      <point x="102" y="84" type="line"/>
      <point x="102" y="110"/>
      <point x="82" y="122"/>
      <point x="56" y="122" type="curve" smooth="yes"/>
      <point x="24" y="122"/>
      <point x="12" y="104"/>
      <point x="12" y="86" type="curve" smooth="yes"/>
      <point x="12" y="66"/>
      <point x="26" y="56"/>
      <point x="50" y="52" type="curve" smooth="yes"/>
      <point x="74" y="46"/>
      <point x="80" y="44"/>
      <point x="80" y="34" type="curve" smooth="yes"/>
      <point x="80" y="24"/>
      <point x="74" y="18"/>
      <point x="56" y="18" type="curve" smooth="yes"/>
      <point x="40" y="18"/>
      <point x="32" y="26"/>
      <point x="32" y="36" type="curve"/>
      <point x="32" y="38" type="line"/>
      <point x="12" y="38" type="line"/>
      <point x="8" y="36" type="line"/>
      <point x="8" y="10"/>
      <point x="26" y="-4"/>
      <point x="56" y="-4" type="curve" smooth="yes"/>
      <point x="90" y="-4"/>
      <point x="104" y="14"/>
    </contour>
  </outline>
</glyph>
<glyph name="t" format="1">
  <advance width="88"/>
  <unicode hex="0074"/>
  <outline>
    <contour>
      <point x="80" y="16" type="line"/>
      <point x="62" y="16"/>
      <point x="52" y="28"/>
      <point x="52" y="44" type="curve" smooth="yes"/>
      <point x="52" y="100" type="line"/>
      <point x="80" y="100" type="line"/>
      <point x="80" y="120" type="line"/>
      <point x="52" y="120" type="line"/>
      <point x="52" y="156" type="line"/>
      <point x="30" y="156" type="line"/>
      <point x="30" y="120" type="line"/>
      <point x="8" y="120" type="line"/>
      <point x="8" y="100" type="line"/>
      <point x="30" y="100" type="line"/>
      <point x="30" y="40" type="line" smooth="yes"/>
      <point x="30" y="8"/>
      <point x="60" y="-4"/>
      <point x="80" y="-4" type="curve"/>
    </contour>
  </outline>
</glyph>
<glyph name="u" format="1">
  <advance width="124"/>
  <unicode hex="0075"/>
  <outline>
    <contour>
      <point x="88" y="16" type="curve"/>
      <point x="88" y="0" type="line"/>
      <point x="108" y="0" type="line"/>
      <point x="108" y="120" type="line"/>
      <point x="86" y="120" type="line"/>
      <point x="86" y="44" type="line" smooth="yes"/>
      <point x="86" y="28"/>
      <point x="76" y="16"/>
      <point x="58" y="16" type="curve"/>
      <point x="40" y="16"/>
      <point x="30" y="28"/>
      <point x="30" y="44" type="curve" smooth="yes"/>
      <point x="30" y="120" type="line"/>
      <point x="8" y="120" type="line"/>
      <point x="8" y="40" type="line" smooth="yes"/>
      <point x="8" y="8"/>
      <point x="32" y="-4"/>
      <point x="52" y="-4" type="curve"/>
      <point x="68" y="-4"/>
      <point x="80" y="4"/>
    </contour>
  </outline>
</glyph>
<glyph name="v" format="1">
  <advance width="120"/>
  <unicode hex="0076"/>
  <outline>
    <contour>
      <point x="48" y="0" type="line"/>
      <point x="72" y="0" type="line"/>
      <point x="112" y="100" type="line"/>
      <point x="112" y="120" type="line"/>
      <point x="96" y="120" type="line"/>
      <point x="60" y="26" type="line"/>
      <point x="24" y="120" type="line"/>
      <point x="8" y="120" type="line"/>
      <point x="8" y="100" type="line"/>
    </contour>
  </outline>
</glyph>
<glyph name="w" format="1">
  <advance width="224"/>
  <unicode hex="0077"/>
  <outline>
    <contour>
      <point x="128" y="120" type="line"/>
      <point x="96" y="120" type="line"/>
      <point x="60" y="26" type="line"/>
      <point x="24" y="120" type="line"/>
      <point x="8" y="120" type="line"/>
      <point x="8" y="100" type="line"/>
      <point x="48" y="0" type="line"/>
      <point x="72" y="0" type="line"/>
      <point x="112" y="100" type="line"/>
      <point x="152" y="0" type="line"/>
      <point x="176" y="0" type="line"/>
      <point x="216" y="100" type="line"/>
      <point x="216" y="120" type="line"/>
      <point x="200" y="120" type="line"/>
      <point x="164" y="26" type="line"/>
    </contour>
  </outline>
</glyph>
<glyph name="z" format="1">
  <advance width="112"/>
  <unicode hex="007A"/>
  <outline>
    <contour>
      <point x="8" y="20" type="line"/>
      <point x="8" y="0" type="line"/>
      <point x="104" y="0" type="line"/>
      <point x="104" y="20" type="line"/>
      <point x="36" y="20" type="line"/>
      <point x="104" y="100" type="line"/>
      <point x="104" y="120" type="line"/>
      <point x="12" y="120" type="line"/>
      <point x="12" y="100" type="line"/>
      <point x="76" y="100" type="line"/>
    </contour>
  </outline>
</glyph>
